<?xml version="1.0" encoding="UTF-8" standalone="no"?><!DOCTYPE svg PUBLIC "-//W3C//DTD SVG 1.1//EN" "http://www.w3.org/Graphics/SVG/1.1/DTD/svg11.dtd"><svg width="100%" height="100%" viewBox="0 0 10886 10886" version="1.1" xmlns="http://www.w3.org/2000/svg" xmlns:xlink="http://www.w3.org/1999/xlink" xml:space="preserve" xmlns:serif="http://www.serif.com/" style="fill-rule:evenodd;clip-rule:evenodd;stroke-linejoin:round;stroke-miterlimit:2;"><path d="M10885.7,5442.84c0,1460.82 -575.52,2787.24 -1512.24,3764.84c-990.625,1034.11 -2385.55,1677.99 -3930.6,1677.99c-1545.18,0 -2939.97,-643.881 -3930.73,-1677.99c-936.587,-977.606 -1512.11,-2304.02 -1512.11,-3764.84c0,-3005.96 2436.85,-5442.84 5442.84,-5442.84c3005.99,-0 5442.84,2436.88 5442.84,5442.84Z" style="fill:#e0e0df;fill-rule:nonzero;"/><path d="M7666.41,3511.39c-0,1228.02 -995.573,2223.54 -2223.57,2223.54c-1228.12,-0 -2223.57,-995.52 -2223.57,-2223.54c-0,-1228.03 995.443,-2223.54 2223.57,-2223.54c1228,0 2223.57,995.509 2223.57,2223.54Z" style="fill:#a4aeaf;fill-rule:nonzero;"/><path d="M9189.06,8757.68c-43.621,49.284 -88.282,97.748 -133.725,145.26c-910.547,950.431 -2192.45,1542.11 -3612.5,1542.11c-1420.18,-0 -2701.95,-591.68 -3612.5,-1542.11c-45.572,-47.512 -90.104,-95.976 -133.724,-145.26c0,-1539.89 893.099,-2356.95 3746.22,-2356.95c2958.72,-0 3746.22,953.488 3746.22,2356.95Z" style="fill:#a4aeaf;fill-rule:nonzero;"/></svg>